<svg width="75" height="27" viewBox="0 0 75 27" fill="none" xmlns="http://www.w3.org/2000/svg">
<rect x="0.5" y="0.5" width="74" height="26" rx="4.5" fill="#84CC16" fill-opacity="0.1"/>
<path d="M24.5 13.25C24.4994 12.5877 24.3112 11.9391 23.9572 11.3794C23.6033 10.8196 23.0981 10.3715 22.5 10.0869V10C22.4995 9.35576 22.2915 8.72882 21.907 8.21195C21.5224 7.69507 20.9817 7.31572 20.3648 7.13002C19.7479 6.94432 19.0876 6.96214 18.4816 7.18084C17.8756 7.39954 17.3562 7.80751 17 8.34438C16.6439 7.80751 16.1244 7.39954 15.5185 7.18084C14.9125 6.96214 14.2522 6.94432 13.6353 7.13002C13.0184 7.31572 12.4777 7.69507 12.0931 8.21195C11.7086 8.72882 11.5006 9.35576 11.5 10V10.0869C10.9015 10.3707 10.3958 10.8185 10.0417 11.3783C9.68755 11.9381 9.49957 12.587 9.49957 13.2494C9.49957 13.9118 9.68755 14.5606 10.0417 15.1204C10.3958 15.6802 10.9015 16.1281 11.5 16.4119V16.5C11.5006 17.1442 11.7086 17.7712 12.0931 18.2881C12.4777 18.8049 13.0184 19.1843 13.6353 19.37C14.2522 19.5557 14.9125 19.5379 15.5185 19.3192C16.1244 19.1005 16.6439 18.6925 17 18.1556C17.3562 18.6925 17.8756 19.1005 18.4816 19.3192C19.0876 19.5379 19.7479 19.5557 20.3648 19.37C20.9817 19.1843 21.5224 18.8049 21.907 18.2881C22.2915 17.7712 22.4995 17.1442 22.5 16.5V16.4119C23.098 16.1275 23.6032 15.6796 23.9571 15.12C24.3111 14.5605 24.4993 13.9121 24.5 13.25ZM14.5 18.5C14.0069 18.4999 13.5311 18.3177 13.1642 17.9882C12.7972 17.6587 12.5649 17.2053 12.5119 16.715C12.6736 16.7381 12.8367 16.7498 13 16.75H13.5C13.6327 16.75 13.7598 16.6973 13.8536 16.6036C13.9474 16.5098 14 16.3826 14 16.25C14 16.1174 13.9474 15.9902 13.8536 15.8964C13.7598 15.8027 13.6327 15.75 13.5 15.75H13C12.4098 15.7507 11.8383 15.5425 11.3868 15.1623C10.9353 14.7821 10.6329 14.2543 10.5331 13.6726C10.4333 13.0908 10.5426 12.4925 10.8417 11.9835C11.1407 11.4746 11.6101 11.0879 12.1669 10.8919C12.2643 10.8574 12.3487 10.7936 12.4083 10.7092C12.468 10.6248 12.5 10.524 12.5 10.4206V10C12.5 9.46957 12.7108 8.96086 13.0858 8.58579C13.4609 8.21071 13.9696 8 14.5 8C15.0305 8 15.5392 8.21071 15.9143 8.58579C16.2893 8.96086 16.5 9.46957 16.5 10V14.2662C15.951 13.7724 15.2385 13.4995 14.5 13.5C14.3674 13.5 14.2403 13.5527 14.1465 13.6464C14.0527 13.7402 14 13.8674 14 14C14 14.1326 14.0527 14.2598 14.1465 14.3536C14.2403 14.4473 14.3674 14.5 14.5 14.5C15.0305 14.5 15.5392 14.7107 15.9143 15.0858C16.2893 15.4609 16.5 15.9696 16.5 16.5C16.5 17.0304 16.2893 17.5391 15.9143 17.9142C15.5392 18.2893 15.0305 18.5 14.5 18.5ZM21 15.75H20.5C20.3674 15.75 20.2403 15.8027 20.1465 15.8964C20.0527 15.9902 20 16.1174 20 16.25C20 16.3826 20.0527 16.5098 20.1465 16.6036C20.2403 16.6973 20.3674 16.75 20.5 16.75H21C21.1634 16.7498 21.3265 16.7381 21.4882 16.715C21.4466 17.0992 21.2947 17.4631 21.0507 17.7627C20.8068 18.0624 20.4812 18.2849 20.1135 18.4035C19.7457 18.5221 19.3515 18.5316 18.9784 18.4309C18.6054 18.3301 18.2695 18.1235 18.0114 17.8359C17.7533 17.5484 17.584 17.1922 17.524 16.8105C17.464 16.4288 17.5159 16.0378 17.6734 15.685C17.8308 15.3321 18.0871 15.0324 18.4113 14.8221C18.7355 14.6118 19.1136 14.4999 19.5 14.5C19.6327 14.5 19.7598 14.4473 19.8536 14.3536C19.9474 14.2598 20 14.1326 20 14C20 13.8674 19.9474 13.7402 19.8536 13.6464C19.7598 13.5527 19.6327 13.5 19.5 13.5C18.7616 13.4995 18.0491 13.7724 17.5 14.2662V10C17.5 9.46957 17.7108 8.96086 18.0858 8.58579C18.4609 8.21071 18.9696 8 19.5 8C20.0305 8 20.5392 8.21071 20.9143 8.58579C21.2893 8.96086 21.5 9.46957 21.5 10V10.4206C21.5001 10.524 21.5321 10.6248 21.5918 10.7092C21.6514 10.7936 21.7357 10.8574 21.8332 10.8919C22.3899 11.0879 22.8594 11.4746 23.1584 11.9835C23.4575 12.4925 23.5668 13.0908 23.467 13.6726C23.3672 14.2543 23.0648 14.7821 22.6133 15.1623C22.1618 15.5425 21.5903 15.7507 21 15.75ZM22 12.5C22 12.6326 21.9474 12.7598 21.8536 12.8536C21.7598 12.9473 21.6327 13 21.5 13H21.25C20.6533 13 20.081 12.7629 19.6591 12.341C19.2371 11.919 19 11.3467 19 10.75V10.5C19 10.3674 19.0527 10.2402 19.1465 10.1464C19.2403 10.0527 19.3674 10 19.5 10C19.6327 10 19.7598 10.0527 19.8536 10.1464C19.9474 10.2402 20 10.3674 20 10.5V10.75C20 11.0815 20.1317 11.3995 20.3662 11.6339C20.6006 11.8683 20.9185 12 21.25 12H21.5C21.6327 12 21.7598 12.0527 21.8536 12.1464C21.9474 12.2402 22 12.3674 22 12.5ZM12.75 13H12.5C12.3674 13 12.2403 12.9473 12.1465 12.8536C12.0527 12.7598 12 12.6326 12 12.5C12 12.3674 12.0527 12.2402 12.1465 12.1464C12.2403 12.0527 12.3674 12 12.5 12H12.75C13.0816 12 13.3995 11.8683 13.6339 11.6339C13.8683 11.3995 14 11.0815 14 10.75V10.5C14 10.3674 14.0527 10.2402 14.1465 10.1464C14.2403 10.0527 14.3674 10 14.5 10C14.6327 10 14.7598 10.0527 14.8536 10.1464C14.9474 10.2402 15 10.3674 15 10.5V10.75C15 11.3467 14.763 11.919 14.341 12.341C13.9191 12.7629 13.3468 13 12.75 13Z" fill="#84CC16"/>
<path d="M34.0043 19V8.81818H40.527V10.3643H35.8487V13.1286H40.0795V14.6747H35.8487V19H34.0043ZM44.8983 19.1491C44.1525 19.1491 43.5062 18.9851 42.9593 18.657C42.4125 18.3288 41.9882 17.8698 41.6866 17.2798C41.3883 16.6899 41.2392 16.0005 41.2392 15.2116C41.2392 14.4228 41.3883 13.7318 41.6866 13.1385C41.9882 12.5452 42.4125 12.0845 42.9593 11.7564C43.5062 11.4283 44.1525 11.2642 44.8983 11.2642C45.644 11.2642 46.2903 11.4283 46.8372 11.7564C47.3841 12.0845 47.8066 12.5452 48.1049 13.1385C48.4065 13.7318 48.5574 14.4228 48.5574 15.2116C48.5574 16.0005 48.4065 16.6899 48.1049 17.2798C47.8066 17.8698 47.3841 18.3288 46.8372 18.657C46.2903 18.9851 45.644 19.1491 44.8983 19.1491ZM44.9082 17.7074C45.3126 17.7074 45.6506 17.5964 45.9224 17.3743C46.1942 17.1489 46.3964 16.8473 46.5289 16.4695C46.6648 16.0916 46.7328 15.6707 46.7328 15.2067C46.7328 14.7393 46.6648 14.3168 46.5289 13.9389C46.3964 13.5578 46.1942 13.2545 45.9224 13.0291C45.6506 12.8037 45.3126 12.6911 44.9082 12.6911C44.4939 12.6911 44.1492 12.8037 43.8741 13.0291C43.6023 13.2545 43.3985 13.5578 43.2626 13.9389C43.13 14.3168 43.0637 14.7393 43.0637 15.2067C43.0637 15.6707 43.13 16.0916 43.2626 16.4695C43.3985 16.8473 43.6023 17.1489 43.8741 17.3743C44.1492 17.5964 44.4939 17.7074 44.9082 17.7074ZM53.4158 19.1491C52.6535 19.1491 51.9989 18.9818 51.4521 18.647C50.9085 18.3123 50.4892 17.8499 50.1942 17.2599C49.9026 16.6667 49.7567 15.9839 49.7567 15.2116C49.7567 14.4361 49.9059 13.7517 50.2042 13.1584C50.5025 12.5618 50.9234 12.0978 51.467 11.7663C52.0138 11.4316 52.6602 11.2642 53.4059 11.2642C54.0257 11.2642 54.5742 11.3786 55.0515 11.6072C55.5321 11.8326 55.9149 12.1525 56.1999 12.5668C56.485 12.9777 56.6474 13.4583 56.6871 14.0085H54.967C54.8974 13.6406 54.7317 13.334 54.4698 13.0888C54.2113 12.8402 53.8649 12.7159 53.4308 12.7159C53.0629 12.7159 52.7397 12.8153 52.4613 13.0142C52.1829 13.2098 51.9658 13.4915 51.81 13.8594C51.6576 14.2273 51.5813 14.6681 51.5813 15.1818C51.5813 15.7022 51.6576 16.1496 51.81 16.5241C51.9625 16.8954 52.1763 17.1821 52.4513 17.3842C52.7298 17.5831 53.0562 17.6825 53.4308 17.6825C53.6959 17.6825 53.9329 17.6328 54.1417 17.5334C54.3538 17.4306 54.5311 17.2831 54.6737 17.0909C54.8162 16.8987 54.9139 16.665 54.967 16.3899H56.6871C56.6441 16.9302 56.485 17.4091 56.2099 17.8267C55.9348 18.241 55.5603 18.5658 55.0863 18.8011C54.6123 19.0331 54.0555 19.1491 53.4158 19.1491ZM61.4959 19.1491C60.7502 19.1491 60.1039 18.9851 59.557 18.657C59.0101 18.3288 58.5859 17.8698 58.2843 17.2798C57.986 16.6899 57.8368 16.0005 57.8368 15.2116C57.8368 14.4228 57.986 13.7318 58.2843 13.1385C58.5859 12.5452 59.0101 12.0845 59.557 11.7564C60.1039 11.4283 60.7502 11.2642 61.4959 11.2642C62.2417 11.2642 62.888 11.4283 63.4348 11.7564C63.9817 12.0845 64.4043 12.5452 64.7026 13.1385C65.0042 13.7318 65.155 14.4228 65.155 15.2116C65.155 16.0005 65.0042 16.6899 64.7026 17.2798C64.4043 17.8698 63.9817 18.3288 63.4348 18.657C62.888 18.9851 62.2417 19.1491 61.4959 19.1491ZM61.5059 17.7074C61.9102 17.7074 62.2483 17.5964 62.5201 17.3743C62.7918 17.1489 62.994 16.8473 63.1266 16.4695C63.2625 16.0916 63.3304 15.6707 63.3304 15.2067C63.3304 14.7393 63.2625 14.3168 63.1266 13.9389C62.994 13.5578 62.7918 13.2545 62.5201 13.0291C62.2483 12.8037 61.9102 12.6911 61.5059 12.6911C61.0916 12.6911 60.7469 12.8037 60.4718 13.0291C60.2 13.2545 59.9962 13.5578 59.8603 13.9389C59.7277 14.3168 59.6614 14.7393 59.6614 15.2067C59.6614 15.6707 59.7277 16.0916 59.8603 16.4695C59.9962 16.8473 60.2 17.1489 60.4718 17.3743C60.7469 17.5964 61.0916 17.7074 61.5059 17.7074Z" fill="#84CC16"/>
<rect x="0.5" y="0.5" width="74" height="26" rx="4.5" stroke="#84CC16"/>
</svg>
