<svg width="125" height="27" viewBox="0 0 125 27" fill="none" xmlns="http://www.w3.org/2000/svg">
<rect x="0.5" y="0.5" width="124" height="26" rx="4.5" fill="#F59E0B" fill-opacity="0.1"/>
<path d="M14 9V7C14 6.86739 14.0527 6.74021 14.1464 6.64645C14.2402 6.55268 14.3674 6.5 14.5 6.5C14.6326 6.5 14.7598 6.55268 14.8536 6.64645C14.9473 6.74021 15 6.86739 15 7V9C15 9.13261 14.9473 9.25979 14.8536 9.35355C14.7598 9.44732 14.6326 9.5 14.5 9.5C14.3674 9.5 14.2402 9.44732 14.1464 9.35355C14.0527 9.25979 14 9.13261 14 9ZM16.5 9.5C16.6326 9.5 16.7598 9.44732 16.8536 9.35355C16.9473 9.25979 17 9.13261 17 9V7C17 6.86739 16.9473 6.74021 16.8536 6.64645C16.7598 6.55268 16.6326 6.5 16.5 6.5C16.3674 6.5 16.2402 6.55268 16.1464 6.64645C16.0527 6.74021 16 6.86739 16 7V9C16 9.13261 16.0527 9.25979 16.1464 9.35355C16.2402 9.44732 16.3674 9.5 16.5 9.5ZM18.5 9.5C18.6326 9.5 18.7598 9.44732 18.8536 9.35355C18.9473 9.25979 19 9.13261 19 9V7C19 6.86739 18.9473 6.74021 18.8536 6.64645C18.7598 6.55268 18.6326 6.5 18.5 6.5C18.3674 6.5 18.2402 6.55268 18.1464 6.64645C18.0527 6.74021 18 6.86739 18 7V9C18 9.13261 18.0527 9.25979 18.1464 9.35355C18.2402 9.44732 18.3674 9.5 18.5 9.5ZM24.5 13V13.5C24.4998 14.136 24.2572 14.748 23.8217 15.2114C23.3861 15.6748 22.7904 15.9548 22.1556 15.9944C21.8146 16.9591 21.2339 17.8213 20.4681 18.5H22C22.1326 18.5 22.2598 18.5527 22.3536 18.6464C22.4473 18.7402 22.5 18.8674 22.5 19C22.5 19.1326 22.4473 19.2598 22.3536 19.3536C22.2598 19.4473 22.1326 19.5 22 19.5H11C10.8674 19.5 10.7402 19.4473 10.6464 19.3536C10.5527 19.2598 10.5 19.1326 10.5 19C10.5 18.8674 10.5527 18.7402 10.6464 18.6464C10.7402 18.5527 10.8674 18.5 11 18.5H12.5338C11.8958 17.9364 11.3847 17.2439 11.0341 16.4682C10.6835 15.6925 10.5015 14.8512 10.5 14V11C10.5 10.8674 10.5527 10.7402 10.6464 10.6464C10.7402 10.5527 10.8674 10.5 11 10.5H22C22.663 10.5 23.2989 10.7634 23.7678 11.2322C24.2366 11.7011 24.5 12.337 24.5 13ZM21.5 11.5H11.5V14C11.5019 14.9388 11.7672 15.8582 12.2658 16.6537C12.7643 17.4492 13.476 18.0889 14.32 18.5H18.68C19.524 18.0889 20.2357 17.4492 20.7343 16.6537C21.2328 15.8582 21.4981 14.9388 21.5 14V11.5ZM23.5 13C23.4999 12.6899 23.4037 12.3874 23.2246 12.1342C23.0455 11.8811 22.7924 11.6896 22.5 11.5862V14C22.4996 14.314 22.4745 14.6275 22.425 14.9375C22.7352 14.8458 23.0075 14.6564 23.2013 14.3973C23.395 14.1382 23.4998 13.8235 23.5 13.5V13Z" fill="#F59E0B"/>
<path d="M34.0043 19V8.81818H37.8224C38.6046 8.81818 39.2609 8.96401 39.7912 9.25568C40.3248 9.54735 40.7275 9.94839 40.9993 10.4588C41.2744 10.9659 41.4119 11.5426 41.4119 12.1889C41.4119 12.8419 41.2744 13.4219 40.9993 13.929C40.7242 14.4361 40.3182 14.8355 39.7812 15.1271C39.2443 15.4155 38.5831 15.5597 37.7976 15.5597H35.267V14.0433H37.549C38.0064 14.0433 38.3809 13.9638 38.6726 13.8047C38.9643 13.6456 39.1797 13.4268 39.3189 13.1484C39.4614 12.87 39.5327 12.5502 39.5327 12.1889C39.5327 11.8277 39.4614 11.5095 39.3189 11.2344C39.1797 10.9593 38.9626 10.7455 38.6676 10.593C38.3759 10.4373 37.9998 10.3594 37.5391 10.3594H35.8487V19H34.0043ZM44.9952 19.1541C44.5113 19.1541 44.0755 19.0679 43.6877 18.8956C43.3032 18.7199 42.9983 18.4614 42.7729 18.12C42.5508 17.7786 42.4398 17.3577 42.4398 16.8572C42.4398 16.4264 42.5194 16.0701 42.6784 15.7884C42.8375 15.5066 43.0546 15.2812 43.3297 15.1122C43.6048 14.9432 43.9147 14.8156 44.2594 14.7294C44.6074 14.6399 44.967 14.5753 45.3382 14.5355C45.7857 14.4891 46.1486 14.4477 46.427 14.4112C46.7054 14.3714 46.9076 14.3118 47.0336 14.2322C47.1628 14.1494 47.2275 14.0218 47.2275 13.8494V13.8196C47.2275 13.4451 47.1164 13.1551 46.8944 12.9496C46.6723 12.7441 46.3525 12.6413 45.9348 12.6413C45.494 12.6413 45.1444 12.7375 44.8858 12.9297C44.6306 13.1219 44.4583 13.349 44.3688 13.6108L42.6884 13.3722C42.821 12.9081 43.0397 12.5204 43.3446 12.2088C43.6496 11.8939 44.0224 11.6586 44.4632 11.5028C44.9041 11.3438 45.3913 11.2642 45.9249 11.2642C46.2928 11.2642 46.659 11.3073 47.0236 11.3935C47.3882 11.4796 47.7213 11.6222 48.0229 11.821C48.3245 12.0166 48.5665 12.2834 48.7488 12.6214C48.9344 12.9595 49.0272 13.3821 49.0272 13.8892V19H47.2971V17.951H47.2374C47.128 18.1631 46.9739 18.362 46.775 18.5476C46.5795 18.7299 46.3326 18.8774 46.0343 18.9901C45.7393 19.0994 45.3929 19.1541 44.9952 19.1541ZM45.4625 17.8317C45.8238 17.8317 46.137 17.7604 46.4022 17.6179C46.6673 17.4721 46.8712 17.2798 47.0137 17.0412C47.1595 16.8026 47.2324 16.5424 47.2324 16.2607V15.3608C47.1761 15.4072 47.08 15.4503 46.9441 15.4901C46.8115 15.5298 46.6623 15.5646 46.4966 15.5945C46.3309 15.6243 46.1668 15.6508 46.0044 15.674C45.842 15.6972 45.7012 15.7171 45.5819 15.7337C45.3134 15.7701 45.0731 15.8298 44.861 15.9126C44.6489 15.9955 44.4815 16.1115 44.3588 16.2607C44.2362 16.4065 44.1749 16.5954 44.1749 16.8274C44.1749 17.1589 44.2959 17.4091 44.5378 17.5781C44.7798 17.7472 45.088 17.8317 45.4625 17.8317ZM55.704 15.7884V11.3636H57.5037V19H55.7587V17.6428H55.6792C55.5068 18.0703 55.2234 18.42 54.829 18.6918C54.4379 18.9635 53.9557 19.0994 53.3823 19.0994C52.8818 19.0994 52.4393 18.9884 52.0549 18.7663C51.6737 18.541 51.3754 18.2145 51.16 17.7869C50.9445 17.3561 50.8368 16.8357 50.8368 16.2259V11.3636H52.6365V15.9474C52.6365 16.4313 52.7691 16.8158 53.0343 17.1009C53.2994 17.3859 53.6474 17.5284 54.0783 17.5284C54.3435 17.5284 54.6003 17.4638 54.8489 17.3345C55.0975 17.2053 55.3013 17.013 55.4604 16.7578C55.6228 16.4993 55.704 16.1761 55.704 15.7884ZM65.3899 13.3821L63.7493 13.5611C63.7029 13.3954 63.6217 13.2396 63.5057 13.0938C63.393 12.9479 63.2405 12.8303 63.0483 12.7408C62.8561 12.6513 62.6207 12.6065 62.3423 12.6065C61.9678 12.6065 61.6529 12.6877 61.3977 12.8501C61.1458 13.0125 61.0215 13.223 61.0249 13.4815C61.0215 13.7036 61.1027 13.8842 61.2685 14.0234C61.4375 14.1626 61.7159 14.277 62.1037 14.3665L63.4062 14.6449C64.1288 14.8007 64.6657 15.0476 65.017 15.3857C65.3717 15.7237 65.5507 16.1662 65.554 16.7131C65.5507 17.1937 65.4098 17.6179 65.1314 17.9858C64.8563 18.3504 64.4735 18.6354 63.983 18.8409C63.4924 19.0464 62.929 19.1491 62.2926 19.1491C61.358 19.1491 60.6056 18.9536 60.0355 18.5625C59.4654 18.1681 59.1257 17.6196 59.0163 16.9169L60.7713 16.7479C60.8509 17.0926 61.0199 17.3527 61.2784 17.5284C61.5369 17.7041 61.8733 17.7919 62.2876 17.7919C62.7152 17.7919 63.0582 17.7041 63.3168 17.5284C63.5786 17.3527 63.7095 17.1357 63.7095 16.8771C63.7095 16.6584 63.625 16.4777 63.456 16.3352C63.2902 16.1927 63.0317 16.0833 62.6804 16.0071L61.3778 15.7337C60.6454 15.5812 60.1035 15.3243 59.7521 14.9631C59.4008 14.5985 59.2268 14.1378 59.2301 13.581C59.2268 13.1103 59.3544 12.7027 59.6129 12.358C59.8748 12.0099 60.2377 11.7415 60.7017 11.5526C61.169 11.3603 61.7076 11.2642 62.3175 11.2642C63.2124 11.2642 63.9167 11.4548 64.4304 11.8359C64.9474 12.2171 65.2673 12.7325 65.3899 13.3821ZM69.2354 19.1541C68.7515 19.1541 68.3157 19.0679 67.9279 18.8956C67.5434 18.7199 67.2385 18.4614 67.0131 18.12C66.7911 17.7786 66.68 17.3577 66.68 16.8572C66.68 16.4264 66.7596 16.0701 66.9187 15.7884C67.0778 15.5066 67.2949 15.2812 67.57 15.1122C67.8451 14.9432 68.1549 14.8156 68.4996 14.7294C68.8477 14.6399 69.2073 14.5753 69.5785 14.5355C70.0259 14.4891 70.3888 14.4477 70.6673 14.4112C70.9457 14.3714 71.1478 14.3118 71.2738 14.2322C71.4031 14.1494 71.4677 14.0218 71.4677 13.8494V13.8196C71.4677 13.4451 71.3567 13.1551 71.1346 12.9496C70.9125 12.7441 70.5927 12.6413 70.1751 12.6413C69.7343 12.6413 69.3846 12.7375 69.1261 12.9297C68.8709 13.1219 68.6985 13.349 68.609 13.6108L66.9286 13.3722C67.0612 12.9081 67.2799 12.5204 67.5849 12.2088C67.8898 11.8939 68.2627 11.6586 68.7035 11.5028C69.1443 11.3438 69.6315 11.2642 70.1651 11.2642C70.533 11.2642 70.8993 11.3073 71.2638 11.3935C71.6284 11.4796 71.9615 11.6222 72.2631 11.821C72.5647 12.0166 72.8067 12.2834 72.989 12.6214C73.1746 12.9595 73.2674 13.3821 73.2674 13.8892V19H71.5373V17.951H71.4776C71.3683 18.1631 71.2141 18.362 71.0153 18.5476C70.8197 18.7299 70.5728 18.8774 70.2745 18.9901C69.9795 19.0994 69.6332 19.1541 69.2354 19.1541ZM69.7028 17.8317C70.064 17.8317 70.3772 17.7604 70.6424 17.6179C70.9076 17.4721 71.1114 17.2798 71.2539 17.0412C71.3997 16.8026 71.4727 16.5424 71.4727 16.2607V15.3608C71.4163 15.4072 71.3202 15.4503 71.1843 15.4901C71.0517 15.5298 70.9026 15.5646 70.7369 15.5945C70.5711 15.6243 70.4071 15.6508 70.2447 15.674C70.0823 15.6972 69.9414 15.7171 69.8221 15.7337C69.5536 15.7701 69.3133 15.8298 69.1012 15.9126C68.8891 15.9955 68.7217 16.1115 68.5991 16.2607C68.4764 16.4065 68.4151 16.5954 68.4151 16.8274C68.4151 17.1589 68.5361 17.4091 68.7781 17.5781C69.02 17.7472 69.3282 17.8317 69.7028 17.8317ZM87.3445 12.2536H85.4851C85.4321 11.9486 85.3343 11.6785 85.1918 11.4432C85.0492 11.2045 84.8719 11.0024 84.6598 10.8366C84.4477 10.6709 84.2057 10.5466 83.9339 10.4638C83.6655 10.3776 83.3755 10.3345 83.0639 10.3345C82.5104 10.3345 82.0199 10.4737 81.5923 10.7521C81.1648 11.0272 80.83 11.4316 80.5881 11.9652C80.3461 12.4955 80.2251 13.1435 80.2251 13.9091C80.2251 14.688 80.3461 15.3442 80.5881 15.8778C80.8333 16.4081 81.1681 16.8092 81.5923 17.081C82.0199 17.3494 82.5088 17.4837 83.0589 17.4837C83.3639 17.4837 83.6489 17.4439 83.9141 17.3643C84.1825 17.2815 84.4228 17.1605 84.6349 17.0014C84.8504 16.8423 85.031 16.6468 85.1768 16.4148C85.326 16.1828 85.4287 15.9176 85.4851 15.6193L87.3445 15.6293C87.2749 16.1132 87.1241 16.5672 86.892 16.9915C86.6634 17.4157 86.3634 17.7902 85.9922 18.1151C85.621 18.4366 85.1868 18.6884 84.6896 18.8707C84.1925 19.0497 83.6406 19.1392 83.0341 19.1392C82.1392 19.1392 81.3404 18.9321 80.6378 18.5178C79.9351 18.1035 79.3816 17.5052 78.9773 16.723C78.5729 15.9408 78.3707 15.0028 78.3707 13.9091C78.3707 12.812 78.5746 11.8741 78.9822 11.0952C79.3899 10.313 79.9451 9.71473 80.6477 9.30043C81.3504 8.88613 82.1458 8.67898 83.0341 8.67898C83.6009 8.67898 84.1278 8.75852 84.6151 8.91761C85.1023 9.0767 85.5365 9.31037 85.9176 9.61861C86.2988 9.92353 86.612 10.2981 86.8572 10.7422C87.1058 11.183 87.2682 11.6868 87.3445 12.2536ZM93.8212 15.7884V11.3636H95.6209V19H93.8759V17.6428H93.7963C93.624 18.0703 93.3406 18.42 92.9462 18.6918C92.5551 18.9635 92.0729 19.0994 91.4995 19.0994C90.999 19.0994 90.5565 18.9884 90.1721 18.7663C89.7909 18.541 89.4926 18.2145 89.2772 17.7869C89.0617 17.3561 88.954 16.8357 88.954 16.2259V11.3636H90.7537V15.9474C90.7537 16.4313 90.8863 16.8158 91.1515 17.1009C91.4166 17.3859 91.7646 17.5284 92.1955 17.5284C92.4606 17.5284 92.7175 17.4638 92.9661 17.3345C93.2147 17.2053 93.4185 17.013 93.5776 16.7578C93.74 16.4993 93.8212 16.1761 93.8212 15.7884ZM97.4716 19V11.3636H99.2166V12.6364H99.2962C99.4354 12.1955 99.674 11.8558 100.012 11.6172C100.353 11.3752 100.743 11.2543 101.18 11.2543C101.28 11.2543 101.391 11.2592 101.513 11.2692C101.639 11.2758 101.744 11.2874 101.827 11.304V12.9595C101.75 12.933 101.629 12.9098 101.464 12.8899C101.301 12.8667 101.144 12.8551 100.991 12.8551C100.663 12.8551 100.368 12.9264 100.107 13.0689C99.848 13.2081 99.6442 13.402 99.495 13.6506C99.3459 13.8991 99.2713 14.1858 99.2713 14.5107V19H97.4716ZM107.246 11.3636V12.7557H102.856V11.3636H107.246ZM103.94 9.53409H105.739V16.7031C105.739 16.9451 105.776 17.1307 105.849 17.2599C105.925 17.3859 106.024 17.4721 106.147 17.5185C106.27 17.5649 106.406 17.5881 106.555 17.5881C106.667 17.5881 106.77 17.5798 106.863 17.5632C106.959 17.5466 107.032 17.5317 107.082 17.5185L107.385 18.9254C107.289 18.9586 107.151 18.995 106.972 19.0348C106.797 19.0746 106.581 19.0978 106.326 19.1044C105.875 19.1177 105.469 19.0497 105.108 18.9006C104.747 18.7481 104.46 18.5128 104.248 18.1946C104.039 17.8764 103.936 17.4787 103.94 17.0014V9.53409ZM110.948 19.1541C110.464 19.1541 110.029 19.0679 109.641 18.8956C109.256 18.7199 108.951 18.4614 108.726 18.12C108.504 17.7786 108.393 17.3577 108.393 16.8572C108.393 16.4264 108.472 16.0701 108.632 15.7884C108.791 15.5066 109.008 15.2812 109.283 15.1122C109.558 14.9432 109.868 14.8156 110.213 14.7294C110.561 14.6399 110.92 14.5753 111.291 14.5355C111.739 14.4891 112.102 14.4477 112.38 14.4112C112.659 14.3714 112.861 14.3118 112.987 14.2322C113.116 14.1494 113.181 14.0218 113.181 13.8494V13.8196C113.181 13.4451 113.07 13.1551 112.847 12.9496C112.625 12.7441 112.306 12.6413 111.888 12.6413C111.447 12.6413 111.097 12.7375 110.839 12.9297C110.584 13.1219 110.411 13.349 110.322 13.6108L108.642 13.3722C108.774 12.9081 108.993 12.5204 109.298 12.2088C109.603 11.8939 109.976 11.6586 110.416 11.5028C110.857 11.3438 111.344 11.2642 111.878 11.2642C112.246 11.2642 112.612 11.3073 112.977 11.3935C113.341 11.4796 113.674 11.6222 113.976 11.821C114.278 12.0166 114.52 12.2834 114.702 12.6214C114.887 12.9595 114.98 13.3821 114.98 13.8892V19H113.25V17.951H113.191C113.081 18.1631 112.927 18.362 112.728 18.5476C112.533 18.7299 112.286 18.8774 111.987 18.9901C111.692 19.0994 111.346 19.1541 110.948 19.1541ZM111.416 17.8317C111.777 17.8317 112.09 17.7604 112.355 17.6179C112.62 17.4721 112.824 17.2798 112.967 17.0412C113.113 16.8026 113.186 16.5424 113.186 16.2607V15.3608C113.129 15.4072 113.033 15.4503 112.897 15.4901C112.765 15.5298 112.615 15.5646 112.45 15.5945C112.284 15.6243 112.12 15.6508 111.958 15.674C111.795 15.6972 111.654 15.7171 111.535 15.7337C111.267 15.7701 111.026 15.8298 110.814 15.9126C110.602 15.9955 110.435 16.1115 110.312 16.2607C110.189 16.4065 110.128 16.5954 110.128 16.8274C110.128 17.1589 110.249 17.4091 110.491 17.5781C110.733 17.7472 111.041 17.8317 111.416 17.8317Z" fill="#F59E0B"/>
<rect x="0.5" y="0.5" width="124" height="26" rx="4.5" stroke="#F59E0B"/>
</svg>
