<svg width="129" height="27" viewBox="0 0 129 27" fill="none" xmlns="http://www.w3.org/2000/svg">
<rect x="0.5" y="0.5" width="128" height="26" rx="4.5" fill="#06B6D4" fill-opacity="0.1"/>
<path d="M14 9V7C14 6.86739 14.0527 6.74021 14.1464 6.64645C14.2402 6.55268 14.3674 6.5 14.5 6.5C14.6326 6.5 14.7598 6.55268 14.8536 6.64645C14.9473 6.74021 15 6.86739 15 7V9C15 9.13261 14.9473 9.25979 14.8536 9.35355C14.7598 9.44732 14.6326 9.5 14.5 9.5C14.3674 9.5 14.2402 9.44732 14.1464 9.35355C14.0527 9.25979 14 9.13261 14 9ZM16.5 9.5C16.6326 9.5 16.7598 9.44732 16.8536 9.35355C16.9473 9.25979 17 9.13261 17 9V7C17 6.86739 16.9473 6.74021 16.8536 6.64645C16.7598 6.55268 16.6326 6.5 16.5 6.5C16.3674 6.5 16.2402 6.55268 16.1464 6.64645C16.0527 6.74021 16 6.86739 16 7V9C16 9.13261 16.0527 9.25979 16.1464 9.35355C16.2402 9.44732 16.3674 9.5 16.5 9.5ZM18.5 9.5C18.6326 9.5 18.7598 9.44732 18.8536 9.35355C18.9473 9.25979 19 9.13261 19 9V7C19 6.86739 18.9473 6.74021 18.8536 6.64645C18.7598 6.55268 18.6326 6.5 18.5 6.5C18.3674 6.5 18.2402 6.55268 18.1464 6.64645C18.0527 6.74021 18 6.86739 18 7V9C18 9.13261 18.0527 9.25979 18.1464 9.35355C18.2402 9.44732 18.3674 9.5 18.5 9.5ZM24.5 13V13.5C24.4998 14.136 24.2572 14.748 23.8217 15.2114C23.3861 15.6748 22.7904 15.9548 22.1556 15.9944C21.8146 16.9591 21.2339 17.8213 20.4681 18.5H22C22.1326 18.5 22.2598 18.5527 22.3536 18.6464C22.4473 18.7402 22.5 18.8674 22.5 19C22.5 19.1326 22.4473 19.2598 22.3536 19.3536C22.2598 19.4473 22.1326 19.5 22 19.5H11C10.8674 19.5 10.7402 19.4473 10.6464 19.3536C10.5527 19.2598 10.5 19.1326 10.5 19C10.5 18.8674 10.5527 18.7402 10.6464 18.6464C10.7402 18.5527 10.8674 18.5 11 18.5H12.5338C11.8958 17.9364 11.3847 17.2439 11.0341 16.4682C10.6835 15.6925 10.5015 14.8512 10.5 14V11C10.5 10.8674 10.5527 10.7402 10.6464 10.6464C10.7402 10.5527 10.8674 10.5 11 10.5H22C22.663 10.5 23.2989 10.7634 23.7678 11.2322C24.2366 11.7011 24.5 12.337 24.5 13ZM21.5 11.5H11.5V14C11.5019 14.9388 11.7672 15.8582 12.2658 16.6537C12.7643 17.4492 13.476 18.0889 14.32 18.5H18.68C19.524 18.0889 20.2357 17.4492 20.7343 16.6537C21.2328 15.8582 21.4981 14.9388 21.5 14V11.5ZM23.5 13C23.4999 12.6899 23.4037 12.3874 23.2246 12.1342C23.0455 11.8811 22.7924 11.6896 22.5 11.5862V14C22.4996 14.314 22.4745 14.6275 22.425 14.9375C22.7352 14.8458 23.0075 14.6564 23.2013 14.3973C23.395 14.1382 23.4998 13.8235 23.5 13.5V13Z" fill="#06B6D4"/>
<path d="M34.0043 19V8.81818H37.8224C38.6046 8.81818 39.2609 8.96401 39.7912 9.25568C40.3248 9.54735 40.7275 9.94839 40.9993 10.4588C41.2744 10.9659 41.4119 11.5426 41.4119 12.1889C41.4119 12.8419 41.2744 13.4219 40.9993 13.929C40.7242 14.4361 40.3182 14.8355 39.7812 15.1271C39.2443 15.4155 38.5831 15.5597 37.7976 15.5597H35.267V14.0433H37.549C38.0064 14.0433 38.3809 13.9638 38.6726 13.8047C38.9643 13.6456 39.1797 13.4268 39.3189 13.1484C39.4614 12.87 39.5327 12.5502 39.5327 12.1889C39.5327 11.8277 39.4614 11.5095 39.3189 11.2344C39.1797 10.9593 38.9626 10.7455 38.6676 10.593C38.3759 10.4373 37.9998 10.3594 37.5391 10.3594H35.8487V19H34.0043ZM44.9952 19.1541C44.5113 19.1541 44.0755 19.0679 43.6877 18.8956C43.3032 18.7199 42.9983 18.4614 42.7729 18.12C42.5508 17.7786 42.4398 17.3577 42.4398 16.8572C42.4398 16.4264 42.5194 16.0701 42.6784 15.7884C42.8375 15.5066 43.0546 15.2812 43.3297 15.1122C43.6048 14.9432 43.9147 14.8156 44.2594 14.7294C44.6074 14.6399 44.967 14.5753 45.3382 14.5355C45.7857 14.4891 46.1486 14.4477 46.427 14.4112C46.7054 14.3714 46.9076 14.3118 47.0336 14.2322C47.1628 14.1494 47.2275 14.0218 47.2275 13.8494V13.8196C47.2275 13.4451 47.1164 13.1551 46.8944 12.9496C46.6723 12.7441 46.3525 12.6413 45.9348 12.6413C45.494 12.6413 45.1444 12.7375 44.8858 12.9297C44.6306 13.1219 44.4583 13.349 44.3688 13.6108L42.6884 13.3722C42.821 12.9081 43.0397 12.5204 43.3446 12.2088C43.6496 11.8939 44.0224 11.6586 44.4632 11.5028C44.9041 11.3438 45.3913 11.2642 45.9249 11.2642C46.2928 11.2642 46.659 11.3073 47.0236 11.3935C47.3882 11.4796 47.7213 11.6222 48.0229 11.821C48.3245 12.0166 48.5665 12.2834 48.7488 12.6214C48.9344 12.9595 49.0272 13.3821 49.0272 13.8892V19H47.2971V17.951H47.2374C47.128 18.1631 46.9739 18.362 46.775 18.5476C46.5795 18.7299 46.3326 18.8774 46.0343 18.9901C45.7393 19.0994 45.3929 19.1541 44.9952 19.1541ZM45.4625 17.8317C45.8238 17.8317 46.137 17.7604 46.4022 17.6179C46.6673 17.4721 46.8712 17.2798 47.0137 17.0412C47.1595 16.8026 47.2324 16.5424 47.2324 16.2607V15.3608C47.1761 15.4072 47.08 15.4503 46.9441 15.4901C46.8115 15.5298 46.6623 15.5646 46.4966 15.5945C46.3309 15.6243 46.1668 15.6508 46.0044 15.674C45.842 15.6972 45.7012 15.7171 45.5819 15.7337C45.3134 15.7701 45.0731 15.8298 44.861 15.9126C44.6489 15.9955 44.4815 16.1115 44.3588 16.2607C44.2362 16.4065 44.1749 16.5954 44.1749 16.8274C44.1749 17.1589 44.2959 17.4091 44.5378 17.5781C44.7798 17.7472 45.088 17.8317 45.4625 17.8317ZM55.704 15.7884V11.3636H57.5037V19H55.7587V17.6428H55.6792C55.5068 18.0703 55.2234 18.42 54.829 18.6918C54.4379 18.9635 53.9557 19.0994 53.3823 19.0994C52.8818 19.0994 52.4393 18.9884 52.0549 18.7663C51.6737 18.541 51.3754 18.2145 51.16 17.7869C50.9445 17.3561 50.8368 16.8357 50.8368 16.2259V11.3636H52.6365V15.9474C52.6365 16.4313 52.7691 16.8158 53.0343 17.1009C53.2994 17.3859 53.6474 17.5284 54.0783 17.5284C54.3435 17.5284 54.6003 17.4638 54.8489 17.3345C55.0975 17.2053 55.3013 17.013 55.4604 16.7578C55.6228 16.4993 55.704 16.1761 55.704 15.7884ZM65.3899 13.3821L63.7493 13.5611C63.7029 13.3954 63.6217 13.2396 63.5057 13.0938C63.393 12.9479 63.2405 12.8303 63.0483 12.7408C62.8561 12.6513 62.6207 12.6065 62.3423 12.6065C61.9678 12.6065 61.6529 12.6877 61.3977 12.8501C61.1458 13.0125 61.0215 13.223 61.0249 13.4815C61.0215 13.7036 61.1027 13.8842 61.2685 14.0234C61.4375 14.1626 61.7159 14.277 62.1037 14.3665L63.4062 14.6449C64.1288 14.8007 64.6657 15.0476 65.017 15.3857C65.3717 15.7237 65.5507 16.1662 65.554 16.7131C65.5507 17.1937 65.4098 17.6179 65.1314 17.9858C64.8563 18.3504 64.4735 18.6354 63.983 18.8409C63.4924 19.0464 62.929 19.1491 62.2926 19.1491C61.358 19.1491 60.6056 18.9536 60.0355 18.5625C59.4654 18.1681 59.1257 17.6196 59.0163 16.9169L60.7713 16.7479C60.8509 17.0926 61.0199 17.3527 61.2784 17.5284C61.5369 17.7041 61.8733 17.7919 62.2876 17.7919C62.7152 17.7919 63.0582 17.7041 63.3168 17.5284C63.5786 17.3527 63.7095 17.1357 63.7095 16.8771C63.7095 16.6584 63.625 16.4777 63.456 16.3352C63.2902 16.1927 63.0317 16.0833 62.6804 16.0071L61.3778 15.7337C60.6454 15.5812 60.1035 15.3243 59.7521 14.9631C59.4008 14.5985 59.2268 14.1378 59.2301 13.581C59.2268 13.1103 59.3544 12.7027 59.6129 12.358C59.8748 12.0099 60.2377 11.7415 60.7017 11.5526C61.169 11.3603 61.7076 11.2642 62.3175 11.2642C63.2124 11.2642 63.9167 11.4548 64.4304 11.8359C64.9474 12.2171 65.2673 12.7325 65.3899 13.3821ZM69.2354 19.1541C68.7515 19.1541 68.3157 19.0679 67.9279 18.8956C67.5434 18.7199 67.2385 18.4614 67.0131 18.12C66.7911 17.7786 66.68 17.3577 66.68 16.8572C66.68 16.4264 66.7596 16.0701 66.9187 15.7884C67.0778 15.5066 67.2949 15.2812 67.57 15.1122C67.8451 14.9432 68.1549 14.8156 68.4996 14.7294C68.8477 14.6399 69.2073 14.5753 69.5785 14.5355C70.0259 14.4891 70.3888 14.4477 70.6673 14.4112C70.9457 14.3714 71.1478 14.3118 71.2738 14.2322C71.4031 14.1494 71.4677 14.0218 71.4677 13.8494V13.8196C71.4677 13.4451 71.3567 13.1551 71.1346 12.9496C70.9125 12.7441 70.5927 12.6413 70.1751 12.6413C69.7343 12.6413 69.3846 12.7375 69.1261 12.9297C68.8709 13.1219 68.6985 13.349 68.609 13.6108L66.9286 13.3722C67.0612 12.9081 67.2799 12.5204 67.5849 12.2088C67.8898 11.8939 68.2627 11.6586 68.7035 11.5028C69.1443 11.3438 69.6315 11.2642 70.1651 11.2642C70.533 11.2642 70.8993 11.3073 71.2638 11.3935C71.6284 11.4796 71.9615 11.6222 72.2631 11.821C72.5647 12.0166 72.8067 12.2834 72.989 12.6214C73.1746 12.9595 73.2674 13.3821 73.2674 13.8892V19H71.5373V17.951H71.4776C71.3683 18.1631 71.2141 18.362 71.0153 18.5476C70.8197 18.7299 70.5728 18.8774 70.2745 18.9901C69.9795 19.0994 69.6332 19.1541 69.2354 19.1541ZM69.7028 17.8317C70.064 17.8317 70.3772 17.7604 70.6424 17.6179C70.9076 17.4721 71.1114 17.2798 71.2539 17.0412C71.3997 16.8026 71.4727 16.5424 71.4727 16.2607V15.3608C71.4163 15.4072 71.3202 15.4503 71.1843 15.4901C71.0517 15.5298 70.9026 15.5646 70.7369 15.5945C70.5711 15.6243 70.4071 15.6508 70.2447 15.674C70.0823 15.6972 69.9414 15.7171 69.8221 15.7337C69.5536 15.7701 69.3133 15.8298 69.1012 15.9126C68.8891 15.9955 68.7217 16.1115 68.5991 16.2607C68.4764 16.4065 68.4151 16.5954 68.4151 16.8274C68.4151 17.1589 68.5361 17.4091 68.7781 17.5781C69.02 17.7472 69.3282 17.8317 69.7028 17.8317ZM78.6293 19V8.81818H80.4737V17.4538H84.9581V19H78.6293ZM89.8104 19.1491C89.0646 19.1491 88.4183 18.9851 87.8714 18.657C87.3246 18.3288 86.9003 17.8698 86.5987 17.2798C86.3004 16.6899 86.1513 16.0005 86.1513 15.2116C86.1513 14.4228 86.3004 13.7318 86.5987 13.1385C86.9003 12.5452 87.3246 12.0845 87.8714 11.7564C88.4183 11.4283 89.0646 11.2642 89.8104 11.2642C90.5561 11.2642 91.2024 11.4283 91.7493 11.7564C92.2962 12.0845 92.7188 12.5452 93.017 13.1385C93.3187 13.7318 93.4695 14.4228 93.4695 15.2116C93.4695 16.0005 93.3187 16.6899 93.017 17.2798C92.7188 17.8698 92.2962 18.3288 91.7493 18.657C91.2024 18.9851 90.5561 19.1491 89.8104 19.1491ZM89.8203 17.7074C90.2247 17.7074 90.5627 17.5964 90.8345 17.3743C91.1063 17.1489 91.3085 16.8473 91.4411 16.4695C91.5769 16.0916 91.6449 15.6707 91.6449 15.2067C91.6449 14.7393 91.5769 14.3168 91.4411 13.9389C91.3085 13.5578 91.1063 13.2545 90.8345 13.0291C90.5627 12.8037 90.2247 12.6911 89.8203 12.6911C89.406 12.6911 89.0613 12.8037 88.7862 13.0291C88.5144 13.2545 88.3106 13.5578 88.1747 13.9389C88.0421 14.3168 87.9759 14.7393 87.9759 15.2067C87.9759 15.6707 88.0421 16.0916 88.1747 16.4695C88.3106 16.8473 88.5144 17.1489 88.7862 17.3743C89.0613 17.5964 89.406 17.7074 89.8203 17.7074ZM96.7967 14.5256V19H94.997V11.3636H96.7172V12.6612H96.8066C96.9823 12.2337 97.2624 11.8939 97.6468 11.642C98.0346 11.3902 98.5136 11.2642 99.0836 11.2642C99.6106 11.2642 100.07 11.3769 100.461 11.6023C100.855 11.8277 101.16 12.1541 101.376 12.5817C101.594 13.0092 101.702 13.5279 101.699 14.1378V19H99.899V14.4162C99.899 13.9058 99.7664 13.5064 99.5012 13.218C99.2394 12.9297 98.8765 12.7855 98.4125 12.7855C98.0976 12.7855 97.8175 12.8551 97.5723 12.9943C97.3303 13.1302 97.1397 13.3274 97.0005 13.5859C96.8646 13.8445 96.7967 14.1577 96.7967 14.5256ZM106.849 22.0227C106.203 22.0227 105.648 21.9349 105.184 21.7592C104.72 21.5869 104.347 21.3549 104.065 21.0632C103.783 20.7715 103.588 20.4484 103.479 20.0938L105.099 19.701C105.172 19.8501 105.278 19.9976 105.417 20.1435C105.557 20.2926 105.744 20.4152 105.979 20.5114C106.218 20.6108 106.518 20.6605 106.879 20.6605C107.39 20.6605 107.812 20.5362 108.147 20.2876C108.482 20.0424 108.649 19.638 108.649 19.0746V17.6278H108.559C108.467 17.8134 108.331 18.004 108.152 18.1996C107.976 18.3951 107.742 18.5592 107.451 18.6918C107.162 18.8243 106.8 18.8906 106.362 18.8906C105.775 18.8906 105.243 18.7531 104.766 18.478C104.292 18.1996 103.914 17.7853 103.633 17.2351C103.354 16.6816 103.215 15.9889 103.215 15.157C103.215 14.3184 103.354 13.6108 103.633 13.0341C103.914 12.4541 104.294 12.0149 104.771 11.7166C105.248 11.415 105.78 11.2642 106.367 11.2642C106.814 11.2642 107.182 11.3404 107.471 11.4929C107.762 11.642 107.994 11.8227 108.167 12.0348C108.339 12.2436 108.47 12.4408 108.559 12.6264H108.659V11.3636H110.434V19.1243C110.434 19.7772 110.278 20.3175 109.966 20.745C109.655 21.1726 109.229 21.4924 108.689 21.7045C108.148 21.9167 107.535 22.0227 106.849 22.0227ZM106.864 17.4787C107.245 17.4787 107.57 17.3859 107.839 17.2003C108.107 17.0147 108.311 16.7479 108.45 16.3999C108.589 16.0518 108.659 15.6342 108.659 15.147C108.659 14.6664 108.589 14.2455 108.45 13.8842C108.314 13.523 108.112 13.2429 107.844 13.044C107.578 12.8419 107.252 12.7408 106.864 12.7408C106.463 12.7408 106.128 12.8452 105.86 13.054C105.591 13.2628 105.389 13.5495 105.253 13.9141C105.117 14.2753 105.05 14.6863 105.05 15.147C105.05 15.6143 105.117 16.0237 105.253 16.375C105.393 16.723 105.596 16.9948 105.865 17.1903C106.137 17.3826 106.47 17.4787 106.864 17.4787ZM114.476 19.1541C113.992 19.1541 113.556 19.0679 113.168 18.8956C112.784 18.7199 112.479 18.4614 112.253 18.12C112.031 17.7786 111.92 17.3577 111.92 16.8572C111.92 16.4264 112 16.0701 112.159 15.7884C112.318 15.5066 112.535 15.2812 112.81 15.1122C113.085 14.9432 113.395 14.8156 113.74 14.7294C114.088 14.6399 114.448 14.5753 114.819 14.5355C115.266 14.4891 115.629 14.4477 115.907 14.4112C116.186 14.3714 116.388 14.3118 116.514 14.2322C116.643 14.1494 116.708 14.0218 116.708 13.8494V13.8196C116.708 13.4451 116.597 13.1551 116.375 12.9496C116.153 12.7441 115.833 12.6413 115.415 12.6413C114.974 12.6413 114.625 12.7375 114.366 12.9297C114.111 13.1219 113.939 13.349 113.849 13.6108L112.169 13.3722C112.301 12.9081 112.52 12.5204 112.825 12.2088C113.13 11.8939 113.503 11.6586 113.944 11.5028C114.385 11.3438 114.872 11.2642 115.405 11.2642C115.773 11.2642 116.14 11.3073 116.504 11.3935C116.869 11.4796 117.202 11.6222 117.503 11.821C117.805 12.0166 118.047 12.2834 118.229 12.6214C118.415 12.9595 118.508 13.3821 118.508 13.8892V19H116.778V17.951H116.718C116.608 18.1631 116.454 18.362 116.256 18.5476C116.06 18.7299 115.813 18.8774 115.515 18.9901C115.22 19.0994 114.873 19.1541 114.476 19.1541ZM114.943 17.8317C115.304 17.8317 115.617 17.7604 115.883 17.6179C116.148 17.4721 116.352 17.2798 116.494 17.0412C116.64 16.8026 116.713 16.5424 116.713 16.2607V15.3608C116.657 15.4072 116.56 15.4503 116.425 15.4901C116.292 15.5298 116.143 15.5646 115.977 15.5945C115.811 15.6243 115.647 15.6508 115.485 15.674C115.323 15.6972 115.182 15.7171 115.062 15.7337C114.794 15.7701 114.554 15.8298 114.341 15.9126C114.129 15.9955 113.962 16.1115 113.839 16.2607C113.717 16.4065 113.655 16.5954 113.655 16.8274C113.655 17.1589 113.776 17.4091 114.018 17.5781C114.26 17.7472 114.568 17.8317 114.943 17.8317Z" fill="#06B6D4"/>
<rect x="0.5" y="0.5" width="128" height="26" rx="4.5" stroke="#06B6D4"/>
</svg>
